<?xml version="1.0" standalone="no"?>
<!DOCTYPE svg PUBLIC "-//W3C//DTD SVG 20010904//EN"
 "http://www.w3.org/TR/2001/REC-SVG-20010904/DTD/svg10.dtd">
<svg version="1.0" xmlns="http://www.w3.org/2000/svg"
 width="512.000000pt" height="512.000000pt" viewBox="0 0 512.000000 512.000000"
 preserveAspectRatio="xMidYMid meet">

<g transform="translate(0.000000,512.000000) scale(0.100000,-0.100000)"
fill="#000000" stroke="none">
<path d="M2845 4462 c-131 -39 -213 -105 -262 -209 l-24 -51 3 -1619 3 -1618
33 -64 c61 -117 155 -197 264 -227 79 -21 211 -19 285 4 144 45 281 163 335
289 21 47 26 53 54 53 55 0 159 38 224 82 102 68 173 183 202 324 10 48 2 134
-18 202 -5 17 -2 22 11 22 30 0 125 61 179 114 28 29 66 82 86 121 34 67 35
74 35 180 0 106 -1 113 -35 180 -19 39 -36 73 -38 77 -2 4 20 25 48 47 128
102 177 205 168 360 -6 98 -26 153 -85 233 -39 54 -144 138 -172 138 -42 1
-43 16 -2 76 24 35 47 85 56 121 41 163 -60 357 -228 437 -40 19 -79 36 -88
39 -12 4 -17 23 -21 80 -12 192 -164 354 -375 401 -40 9 -83 16 -97 16 -16 0
-32 10 -46 30 -32 45 -143 120 -219 148 -89 32 -196 38 -276 14z m281 -91 c76
-35 133 -85 168 -148 l21 -38 90 0 c82 0 96 -3 160 -34 82 -41 144 -101 182
-179 23 -47 29 -73 31 -147 2 -49 8 -95 13 -101 5 -6 33 -16 63 -23 71 -16
166 -78 204 -133 95 -138 82 -304 -32 -426 -26 -27 -46 -54 -46 -60 0 -16 30
-30 51 -25 9 3 47 -9 83 -26 157 -75 247 -261 201 -417 -30 -103 -94 -187
-174 -229 -46 -23 -54 -46 -31 -86 50 -87 62 -114 71 -166 18 -97 -12 -213
-78 -302 -33 -43 -128 -104 -188 -121 -26 -7 -49 -19 -52 -27 -3 -8 2 -40 11
-72 53 -190 -37 -400 -207 -477 -50 -23 -76 -29 -137 -29 l-74 0 -33 -79 c-18
-43 -45 -97 -60 -119 -54 -77 -183 -156 -290 -177 -51 -10 -74 -10 -138 3 -98
20 -164 62 -221 140 -79 107 -74 8 -74 1437 l0 1277 69 5 c50 4 82 12 113 31
49 29 128 109 151 154 25 48 40 151 30 208 -8 44 -6 54 15 85 26 39 23 71 -11
108 -31 33 -102 28 -130 -10 -29 -39 -26 -82 8 -118 51 -53 43 -198 -15 -278
-47 -65 -85 -86 -162 -90 l-68 -4 0 251 0 252 29 57 c61 120 158 174 306 169
67 -2 92 -8 151 -36z"/>
<path d="M3345 3995 c-35 -34 -35 -96 0 -131 22 -22 25 -33 25 -99 0 -118 -38
-204 -133 -296 -70 -69 -124 -87 -273 -93 -135 -4 -208 -22 -238 -55 -15 -16
-15 -19 4 -36 16 -14 29 -16 72 -11 29 4 108 10 175 15 113 7 128 11 198 45
48 24 97 58 131 93 l56 55 43 -12 c88 -25 175 -134 175 -220 0 -81 -40 -154
-103 -187 -23 -12 -48 -14 -99 -10 -53 5 -71 2 -83 -9 -21 -21 -19 -31 11 -61
24 -24 31 -25 89 -21 114 10 206 73 253 176 67 146 -23 337 -188 402 -19 7
-36 14 -38 16 -2 1 7 30 19 65 17 52 20 80 17 154 -4 81 -2 91 16 106 29 23
27 81 -4 114 -32 34 -91 35 -125 0z"/>
<path d="M2760 2901 c-11 -21 -6 -60 8 -62 4 -1 48 -2 97 -4 70 -2 100 -7 134
-24 91 -47 130 -116 131 -231 0 -41 4 -80 8 -86 4 -6 39 -14 79 -17 39 -3 84
-12 100 -21 44 -22 112 -101 141 -164 23 -49 27 -70 27 -147 0 -101 -14 -139
-79 -210 l-36 -39 24 -24 c15 -16 30 -22 42 -18 49 15 142 177 143 249 1 26 3
27 49 27 87 0 172 -72 172 -146 0 -40 47 -84 90 -84 33 0 80 49 80 84 0 36
-37 76 -70 76 -22 0 -33 7 -44 29 -19 36 -80 89 -125 109 -20 8 -63 18 -95 21
l-59 6 -17 50 c-27 79 -55 128 -99 170 -23 22 -41 43 -41 48 0 4 15 7 33 7 47
0 149 52 198 101 l42 42 158 -5 c140 -5 160 -3 174 12 8 9 15 26 15 37 0 39
-24 46 -158 47 l-127 1 -3 28 c-3 22 -8 27 -32 27 -30 0 -34 -4 -113 -110 -67
-90 -223 -140 -356 -114 -29 6 -31 9 -31 49 0 106 -73 215 -177 267 -60 29
-78 33 -169 36 -96 4 -103 3 -114 -17z"/>
<path d="M2851 2160 c-85 -18 -117 -62 -68 -94 20 -14 28 -14 71 -1 66 20 109
19 154 -4 114 -59 162 -189 111 -301 -28 -62 -53 -86 -132 -127 -74 -39 -114
-82 -152 -165 -32 -72 -45 -158 -45 -313 0 -137 10 -175 48 -175 43 1 45 9 46
216 1 185 3 202 23 240 35 66 72 103 132 134 63 31 128 96 163 162 18 34 23
59 23 118 0 85 -28 158 -84 223 -63 71 -186 108 -290 87z"/>
<path d="M3349 1714 c-11 -13 -9 -24 15 -66 61 -108 37 -247 -54 -316 l-45
-34 -92 4 c-103 6 -120 -2 -109 -47 9 -35 48 -48 128 -42 121 10 211 68 266
172 23 43 27 62 27 140 0 73 -4 98 -22 131 -34 64 -86 91 -114 58z"/>
<path d="M3000 980 c-24 -24 -24 -30 -7 -54 16 -22 65 -25 78 -5 15 24 10 58
-10 69 -28 14 -38 13 -61 -10z"/>
<path d="M2035 4454 c-96 -24 -214 -92 -255 -147 -30 -41 -40 -47 -70 -47
-105 0 -242 -63 -325 -151 -71 -74 -105 -148 -118 -255 l-10 -83 -51 -15
c-103 -30 -205 -116 -251 -211 -59 -119 -56 -273 5 -382 17 -29 30 -55 30 -58
0 -2 -22 -16 -50 -30 -199 -101 -274 -343 -174 -566 20 -44 46 -78 97 -125
l71 -65 -27 -54 c-53 -108 -60 -254 -17 -369 30 -78 118 -172 199 -212 l61
-29 -6 -100 c-10 -160 30 -277 129 -382 77 -82 203 -143 294 -143 28 0 35 -5
47 -34 23 -56 90 -148 143 -198 137 -127 346 -172 508 -108 82 32 164 114 193
193 l22 58 -2 1652 -3 1652 -24 48 c-31 65 -74 105 -148 139 -77 36 -179 45
-268 22z m85 -192 c0 -26 -7 -45 -19 -56 -19 -17 -21 -17 -45 8 -45 44 -29 86
31 86 32 0 33 -2 33 -38z m197 -79 c43 -20 73 -66 73 -111 0 -45 -28 -101 -57
-115 l-23 -10 0 -1253 c0 -1195 1 -1253 18 -1266 55 -40 71 -132 31 -182 -54
-69 -149 -74 -206 -12 -27 30 -33 44 -33 82 0 57 29 108 70 123 l30 10 0 780
c0 429 -3 782 -7 784 -5 3 -93 7 -198 8 l-190 4 0 -150 0 -150 28 -3 c20 -2
38 5 62 27 44 38 92 48 133 27 64 -33 95 -102 68 -154 -40 -78 -127 -97 -191
-41 -19 17 -35 37 -35 45 0 19 -33 34 -76 34 -25 0 -46 7 -61 22 -22 21 -23
27 -23 183 l0 162 -89 -1 c-81 -1 -92 1 -115 23 l-26 24 0 373 0 372 -40 40
c-30 29 -40 48 -40 71 0 69 55 131 123 138 40 5 48 2 82 -29 29 -27 38 -43 42
-79 6 -56 -15 -103 -58 -127 l-29 -17 0 -352 0 -353 29 0 c15 0 49 3 75 6 l46
7 0 157 0 157 -26 11 c-32 15 -58 75 -50 121 7 44 60 99 103 107 43 8 115 -33
133 -76 25 -61 3 -136 -47 -159 -23 -10 -23 -13 -23 -170 l0 -158 31 -7 c47
-9 97 -7 104 4 3 6 3 176 -1 379 l-7 368 -34 19 c-88 47 -84 172 7 219 63 33
139 3 173 -68 23 -45 16 -85 -21 -129 l-27 -32 0 -382 0 -382 80 -4 c44 -3 83
-3 88 -1 4 2 7 195 7 428 l0 424 -28 15 c-35 18 -52 54 -52 109 0 49 19 80 64
108 38 23 67 24 113 2z m-1009 -613 c33 -20 71 -86 72 -123 0 -35 -38 -94 -71
-107 -29 -12 -31 -16 -25 -49 3 -20 6 -134 6 -253 l0 -218 85 0 c73 0 86 3 91
18 11 34 21 46 48 55 43 14 66 -13 66 -79 0 -31 -5 -56 -12 -60 -19 -12 -341
-4 -355 8 -10 8 -13 75 -13 285 l0 274 -30 25 c-58 49 -64 148 -12 196 57 53
96 60 150 28z m-276 -787 c26 -23 24 -78 -4 -97 -29 -20 -82 -20 -98 0 -8 8
-13 29 -13 46 0 57 73 89 115 51z m260 -215 c89 -50 91 -137 4 -216 l-37 -33
3 -142 3 -142 92 -3 c87 -3 93 -4 113 -30 16 -19 20 -35 16 -57 -8 -42 -67
-95 -106 -95 -36 0 -39 21 -10 65 11 17 20 33 20 38 0 4 -39 7 -86 7 -131 0
-124 -10 -124 193 l0 173 -31 30 c-42 39 -62 88 -53 127 20 95 110 133 196 85z
m223 -59 c0 -17 -6 -25 -22 -27 -17 -3 -23 2 -23 15 0 22 20 45 35 40 5 -2 10
-15 10 -28z m557 -126 c22 -22 32 -43 35 -75 4 -38 1 -48 -23 -74 -16 -17 -34
-33 -41 -35 -8 -3 -14 -55 -19 -169 l-7 -165 25 -13 c35 -19 58 -63 58 -112 0
-36 -6 -48 -39 -81 -35 -36 -43 -39 -93 -39 -41 0 -62 5 -82 21 -80 63 -71
180 16 222 l35 17 2 155 c2 113 -1 155 -10 155 -6 0 -31 20 -56 45 -38 39 -49
45 -86 45 -23 0 -59 3 -79 6 l-38 7 0 -442 0 -441 28 -6 c15 -3 39 -9 54 -14
20 -6 30 -4 40 7 7 9 32 25 56 35 54 24 93 14 143 -38 30 -31 34 -41 34 -87 0
-58 -20 -93 -69 -122 -35 -22 -97 -21 -129 0 -33 21 -77 86 -77 112 0 16 -11
24 -58 37 -107 30 -99 -11 -104 503 -3 248 -1 463 4 481 12 45 41 53 164 51
95 -1 104 0 140 25 33 23 47 27 92 23 43 -3 59 -10 84 -34z m-238 -339 c16
-42 1 -64 -45 -64 -24 0 -40 38 -27 63 11 22 64 23 72 1z m-362 -551 c21 -19
23 -42 6 -77 -13 -30 -38 -40 -78 -31 -48 11 -67 70 -33 107 20 23 80 24 105
1z m708 -493 c43 -43 10 -110 -54 -110 -42 0 -66 22 -66 61 0 38 32 69 70 69
17 0 39 -9 50 -20z"/>
<path d="M2230 4100 c-26 -26 -25 -45 2 -64 32 -23 55 -20 74 9 15 23 15 27 0
50 -20 30 -49 32 -76 5z"/>
<path d="M1936 4014 c-17 -16 -14 -26 12 -56 37 -43 99 1 73 51 -14 25 -62 29
-85 5z"/>
<path d="M1518 3979 c-26 -15 -22 -56 7 -75 30 -20 51 -13 67 21 9 21 8 28 -7
45 -20 22 -41 25 -67 9z"/>
<path d="M1739 3576 c-15 -32 -6 -53 26 -68 22 -10 29 -9 47 10 18 18 20 26
12 49 -7 22 -17 29 -42 31 -26 3 -34 -1 -43 -22z"/>
<path d="M1971 2706 c-17 -20 -10 -67 12 -80 21 -14 70 10 75 38 8 41 -60 74
-87 42z"/>
<path d="M2211 1364 c-21 -26 -19 -46 7 -76 19 -23 45 -23 65 0 22 24 21 65
-1 85 -26 24 -47 21 -71 -9z"/>
<path d="M1222 3503 c-38 -15 -31 -86 9 -98 47 -15 87 49 54 85 -18 20 -37 24
-63 13z"/>
<path d="M1190 2500 c-26 -26 -25 -42 3 -68 30 -28 52 -28 71 0 21 29 20 51
-2 71 -25 22 -48 21 -72 -3z"/>
<path d="M1936 2334 c-24 -23 -19 -49 9 -62 35 -16 49 -15 68 6 22 25 21 49
-2 62 -28 14 -57 12 -75 -6z"/>
<path d="M1932 1794 c-12 -8 -22 -26 -22 -39 0 -25 34 -65 55 -65 21 0 55 40
55 65 0 48 -46 69 -88 39z"/>
<path d="M1844 1335 c-15 -23 -15 -27 -1 -49 43 -64 123 -14 87 55 -16 29 -65
25 -86 -6z"/>
</g>
</svg>
